<?xml version="1.0" encoding="UTF-8"?><svg id="Calque_2" xmlns="http://www.w3.org/2000/svg" viewBox="0 0 452.21 115.43"><defs><style>.cls-1{fill:#bb0a21;stroke-width:0px;}</style></defs><g id="Calque_1-2"><path class="cls-1" d="m418.17.03c-1.92,0-.91,0-2.66-.03-10.96,13.68-26.54,32.51-37.12,46.08-3.76,4.82-7.66,9.61-12.71,15.92L358.9.03c-4.05,0-17.86,0-26.87.03-5.46.02-1.74-.03-5.99.02-14.97,20.1-36.45,46.2-51.43,65.89-16.09,21.14-37.67,38.66-65.03,46.81-1.58.47-3.16,1.15-6.92,2.54,23.91-.2,45.03.02,66.47.1h2.83c13.14-17.55,36.48-44.69,51.29-63.92l7.24,63.92c2.15.01,17.69,0,26.86,0,2.29,0,1.81,0,2.12-.03,18.65-18.65,42.57-51.5,59.29-72.7,10.8-13.7,21.64-27.64,33.46-42.65-12.27,0-22.93,0-34.05,0Z"/><path class="cls-1" d="m121.41,115.43c-14.5,0-27.47,0-40.38-.05q-1.62.05-3.05.05c.48-6.62,1.27-18.19,2.63-25.05.86-4.34-.73-5.82-6.2-5.61-16.86.67-11.61-1.8-21.53,11.37-4.55,6.05-8.97,12-14.27,19.29h-18.82c-5.29,0-13.33-.06-19.79,0,4.3-6.21,8-11.62,11.81-17.03C33.09,68.14,61.06,31.18,82.8.03h3.67c36.81.15,73.15-.01,109.62,0,.97,0,2.21,0,3.97,0-3.57,5-7.51,11.32-10.91,16.04-6.58,9.15-13.25,18.23-19.67,27.32-11.25,15.92-26.99,27.56-47.88,35.25-.06,11.65-.12,24.36-.19,36.79Zm-41.19-57.51c34.57,2.97,44.95-.73,61.77-29.94-13.43.03-26.87.06-40.6.08-7.25,10.22-14.21,20.04-21.17,29.86Z"/><path class="cls-1" d="m286.89.03c-14.35,19.04-28.3,37.34-41.78,55.16-4,5.28-7.74,10.67-12.36,15.73-9.54,10.42-23.39,16.5-35.11,15.91-11.16-.56-14.89-7.64-7.57-17.95C205.36,47.32,225.36,21.91,241.63.02c1,.01.49.04,1.8.01,14.35,0,28.5,0,43.46,0Z"/></g></svg>